<?xml version="1.0" standalone="no"?><!DOCTYPE svg PUBLIC "-//W3C//DTD SVG 1.1//EN"
    "http://www.w3.org/Graphics/SVG/1.1/DTD/svg11.dtd">
<svg t="1590133599179" class="icon" viewBox="0 0 1024 1024" version="1.1" xmlns="http://www.w3.org/2000/svg"
     p-id="23376" xmlns:xlink="http://www.w3.org/1999/xlink" width="200" height="200">
    <defs>
        <style type="text/css"></style>
    </defs>
    <path
        d="M279.881728 306.505728l-153.6 153.6C121.481216 464.907264 118.784 471.417856 118.784 478.208l0 460.8c0 14.138368 11.461632 25.6 25.6 25.6l153.6 0c14.138368 0 25.6-11.461632 25.6-25.6L323.584 324.61312c0.001024-6.5536-2.497536-13.1072-7.497728-18.107392C306.087936 296.508416 289.880064 296.508416 279.881728 306.505728z"
        p-id="23377" fill="#889aa4"></path>
    <path
        d="M886.242304 186.478592l-471.04-126.215168c-7.689216-2.059264-15.895552-0.427008-22.21056 4.417536C386.67776 69.526528 382.976 77.033472 382.976 84.992l0 854.016c0 14.139392 11.461632 25.6 25.6 25.6l471.04 0c14.138368 0 25.6-11.460608 25.6-25.6L905.216 211.207168C905.216 199.619584 897.4336 189.477888 886.242304 186.478592zM562.176 299.008l51.2 0c14.138368 0 25.6 11.460608 25.6 25.6s-11.461632 25.6-25.6 25.6l-51.2 0c-14.138368 0-25.6-11.460608-25.6-25.6S548.037632 299.008 562.176 299.008zM726.016 759.808 562.176 759.808c-14.138368 0-25.6-11.461632-25.6-25.6s11.461632-25.6 25.6-25.6l163.84 0c14.138368 0 25.6 11.461632 25.6 25.6S740.154368 759.808 726.016 759.808zM726.016 555.008 562.176 555.008c-14.138368 0-25.6-11.461632-25.6-25.6s11.461632-25.6 25.6-25.6l163.84 0c14.138368 0 25.6 11.461632 25.6 25.6S740.154368 555.008 726.016 555.008z"
        p-id="23378" fill="#889aa4"></path>
</svg>
