<?xml version="1.0" standalone="no"?><!DOCTYPE svg PUBLIC "-//W3C//DTD SVG 1.1//EN" "http://www.w3.org/Graphics/SVG/1.1/DTD/svg11.dtd"><svg t="1564984267138" class="icon" viewBox="0 0 1024 1024" version="1.1" xmlns="http://www.w3.org/2000/svg" p-id="2629" xmlns:xlink="http://www.w3.org/1999/xlink" width="200" height="200"><defs><style type="text/css"></style></defs><path d="M837.818182 302.545455 837.818182 884.363636c0 51.432727-41.704727 93.090909-93.090909 93.090909L279.272727 977.454545c-51.432727 0-93.090909-41.704727-93.090909-93.090909L186.181818 302.545455c-25.693091 0-46.545455-20.852364-46.545455-46.545455l0-46.545455c0-25.693091 20.852364-46.545455 46.545455-46.545455l139.636364 0 0-46.545455c0-25.739636 20.852364-46.545455 46.545455-46.545455l279.272727 0c25.693091 0 46.545455 20.852364 46.545455 46.545455l0 46.545455 139.636364 0c25.693091 0 46.545455 20.852364 46.545455 46.545455l0 46.545455C884.363636 281.739636 863.511273 302.545455 837.818182 302.545455zM232.727273 302.545455 232.727273 884.363636c0 25.693091 20.852364 46.545455 46.545455 46.545455l465.454545 0c25.693091 0 46.545455-20.852364 46.545455-46.545455L791.272727 302.545455C765.114182 302.545455 264.704 302.545455 232.727273 302.545455zM372.363636 162.909091 372.363636 139.636364c0-12.846545 10.426182-23.272727 23.272727-23.272727l232.727273 0C641.210182 116.363636 651.636364 126.789818 651.636364 139.636364l0 23.272727C629.108364 162.909091 372.363636 162.909091 372.363636 162.909091M814.545455 209.454545l-605.090909 0C196.608 209.454545 186.181818 219.880727 186.181818 232.727273c0 12.846545 10.426182 23.272727 23.272727 23.272727l605.090909 0C827.392 256 837.818182 245.573818 837.818182 232.727273 837.818182 219.880727 827.392 209.454545 814.545455 209.454545zM372.363636 418.909091c12.846545 0 23.272727 10.426182 23.272727 23.272727l0 325.818182C395.636364 780.846545 385.210182 791.272727 372.363636 791.272727c-12.846545 0-23.272727-10.426182-23.272727-23.272727l0-325.818182C349.090909 429.335273 359.517091 418.909091 372.363636 418.909091zM512 418.909091c12.846545 0 23.272727 10.426182 23.272727 23.272727l0 325.818182c0 12.846545-10.426182 23.272727-23.272727 23.272727-12.846545 0-23.272727-10.426182-23.272727-23.272727l0-325.818182C488.727273 429.335273 499.153455 418.909091 512 418.909091zM651.636364 418.909091c12.846545 0 23.272727 10.426182 23.272727 23.272727l0 325.818182c0 12.846545-10.426182 23.272727-23.272727 23.272727-12.846545 0-23.272727-10.426182-23.272727-23.272727l0-325.818182C628.363636 429.335273 638.789818 418.909091 651.636364 418.909091z" p-id="2630"></path></svg>