<?xml version="1.0" standalone="no"?><!DOCTYPE svg PUBLIC "-//W3C//DTD SVG 1.1//EN" "http://www.w3.org/Graphics/SVG/1.1/DTD/svg11.dtd"><svg t="1564984471718" class="icon" viewBox="0 0 1024 1024" version="1.1" xmlns="http://www.w3.org/2000/svg" p-id="11866" xmlns:xlink="http://www.w3.org/1999/xlink" width="200" height="200"><defs><style type="text/css"></style></defs><path d="M868.9 63.9H155.1c-21 0-38 17-38 38v820c0 21 17 38 38 38h713.8c21 0 38-17 38-38v-820c0-20.9-17-38-38-38z m-38 820H193.1v-744H831v744z" p-id="11867"></path><path d="M322.3 360.2h379.3c21 0 38-17 38-38s-17-38-38-38H322.3c-21 0-38 17-38 38s17 38 38 38zM322.3 739.6h379.3c21 0 38-17 38-38s-17-38-38-38H322.3c-21 0-38 17-38 38s17 38 38 38zM322.3 549.9h379.3c21 0 38-17 38-38s-17-38-38-38H322.3c-21 0-38 17-38 38s17 38 38 38z" p-id="11868"></path></svg>