<?xml version="1.0" standalone="no"?><!DOCTYPE svg PUBLIC "-//W3C//DTD SVG 1.1//EN"
    "http://www.w3.org/Graphics/SVG/1.1/DTD/svg11.dtd">
<svg class="icon" width="200px" height="200.00px" viewBox="0 0 1024 1024" version="1.1"
     xmlns="http://www.w3.org/2000/svg">
    <path fill="#4b9df3"
          d="M960.1 159.2c0-17.7-14.3-32-32-32H100.2c-1.3-0.2-2.6-0.3-3.9-0.3-14.4 0-26.5 9.5-30.6 22.5-1 3.1-1.5 6.3-1.5 9.7 0 0.7 0 1.5 0.1 2.2v512c0.8 17 14.8 30.5 32 30.5 9.4 0 17.9-4.1 23.7-10.6l231.5-231.5L465 575.6c12.5 12.5 32.8 12.5 45.3 0l1-1 133-133c13.3 6.6 28.4 10.3 44.3 10.3 55.2 0 99.9-44.7 99.9-99.9s-44.7-99.9-99.9-99.9-99.9 44.7-99.9 99.9c0 15.9 3.7 30.9 10.3 44.3L487.6 507.6 376.5 396.5c-0.7-0.9-1.5-1.7-2.3-2.5-12.5-12.5-32.8-12.5-45.3 0L128.2 594.6V191.2H896v448.7H518.2c-1.7-0.3-3.4-0.4-5.2-0.4-1.8 0-3.5 0.1-5.2 0.4H288.2c-17.7 0-32 14.3-32 32s14.3 32 32 32H481V832H288c-17.7 0-32 14.3-32 32s14.3 32 32 32h448c17.7 0 32-14.3 32-32s-14.3-32-32-32H545V703.9h378.7c1.4 0.2 2.9 0.3 4.3 0.3 17.7 0 32-14.3 32-32V161.8c0.1-0.9 0.1-1.7 0.1-2.6z m-271.6 157c19.8 0 35.9 16.1 35.9 35.9S708.3 388 688.5 388s-35.9-16.1-35.9-35.9 16.1-35.9 35.9-35.9z"/>
</svg>
