<?xml version="1.0" standalone="no"?><!DOCTYPE svg PUBLIC "-//W3C//DTD SVG 1.1//EN" "http://www.w3.org/Graphics/SVG/1.1/DTD/svg11.dtd"><svg t="1564984440454" class="icon" viewBox="0 0 1024 1024" version="1.1" xmlns="http://www.w3.org/2000/svg" p-id="10417" xmlns:xlink="http://www.w3.org/1999/xlink" width="200" height="200"><defs><style type="text/css"></style></defs><path d="M568 437.3H344c-20.6 0-37.3-16.7-37.3-37.3 0-20.6 16.7-37.3 37.3-37.3h224c20.6 0 37.3 16.7 37.3 37.3 0 20.6-16.7 37.3-37.3 37.3zM680.4 661.3H343.6c-20.4 0-36.9-16.5-36.9-36.9v-0.8c0-20.4 16.5-36.9 36.9-36.9h336.8c20.4 0 36.9 16.5 36.9 36.9v0.8c0 20.4-16.5 36.9-36.9 36.9z" p-id="10418"></path><path d="M810.7 549.3v336H213.3V138.7h261.3c20.6 0 37.3-16.7 37.3-37.3 0-20.6-16.7-37.3-37.3-37.3H213.3c-41.2 0-74.7 33.4-74.7 74.7v746.7c0 41.2 33.4 74.7 74.7 74.7h597.3c41.2 0 74.7-33.4 74.7-74.7v-336c0-20.6-16.7-37.3-37.3-37.3-20.6-0.2-37.3 16.5-37.3 37.1z" p-id="10419"></path><path d="M649.1 300.3c-14.6-14.6-14.6-38.2 0-52.8L807.5 89.1c14.6-14.6 38.2-14.6 52.8 0 14.6 14.6 14.6 38.2 0 52.8L701.9 300.3c-14.6 14.5-38.2 14.5-52.8 0z" p-id="10420"></path></svg>