<?xml version="1.0" standalone="no"?><!DOCTYPE svg PUBLIC "-//W3C//DTD SVG 1.1//EN"
    "http://www.w3.org/Graphics/SVG/1.1/DTD/svg11.dtd">
<svg t="1590133490591" class="icon" viewBox="0 0 1024 1024" version="1.1" xmlns="http://www.w3.org/2000/svg"
     p-id="23222" xmlns:xlink="http://www.w3.org/1999/xlink" width="200" height="200">
    <defs>
        <style type="text/css"></style>
    </defs>
    <path
        d="M803.8 165.2H218.9c-85.2 0-154.5 69.3-154.5 154.5v383c0 85.2 69.3 154.5 154.5 154.5h584.8c85.2 0 154.5-69.3 154.5-154.5v-383c0-85.2-69.3-154.5-154.4-154.5z m12.3 197.4L619.4 564.5c-28.5 29.3-66.7 45.4-107.4 45.4s-78.8-16.1-107.4-45.4l-198-203c-13.5-13.8-13.2-35.9 0.6-49.3 13.8-13.5 35.9-13.2 49.3 0.6l198.1 203c15.3 15.7 35.7 24.4 57.4 24.4 21.7 0 42.1-8.6 57.4-24.3L766.1 314c13.4-13.8 35.5-14.1 49.3-0.6 13.9 13.3 14.1 35.4 0.7 49.2z"
        p-id="23223" fill="#889aa4"></path>
</svg>
