<?xml version="1.0" standalone="no"?><!DOCTYPE svg PUBLIC "-//W3C//DTD SVG 1.1//EN" "http://www.w3.org/Graphics/SVG/1.1/DTD/svg11.dtd"><svg t="1564989190497" class="icon" viewBox="0 0 1024 1024" version="1.1" xmlns="http://www.w3.org/2000/svg" p-id="27547" xmlns:xlink="http://www.w3.org/1999/xlink" width="200" height="200"><defs><style type="text/css"></style></defs><path d="M877 71.2H339.6c-41.4 0-75 32-75 71.3v184.2c0 14.9 12.1 27 27 27s27-12.1 27-27V142.5c0-9.5 9.4-17.3 21-17.3H877c11.6 0 21 7.8 21 17.3v734.3c0 9.5-9.4 17.3-21 17.3H339.6c-11.6 0-21-7.8-21-17.3V695.9c0-14.9-12.1-27-27-27s-27 12.1-27 27v180.9c0 39.3 33.6 71.3 75 71.3H877c41.4 0 75-32 75-71.3V142.5c0-39.3-33.7-71.3-75-71.3z" p-id="27548"></path><path d="M589.6 650.7c-10.7 10.3-11.1 27.4-0.7 38.2 5.3 5.5 12.4 8.3 19.5 8.3 6.7 0 13.5-2.5 18.7-7.5l164.7-158.5c5.5-5.3 8.2-12.2 8.3-19.3v-0.4-1c-0.3-6.8-3.1-13.4-8.2-18.4L627 333.5c-10.7-10.3-27.8-10-38.2 0.7s-10 27.8 0.7 38.2l116.4 112H98c-14.9 0-27 12.1-27 27s12.1 27 27 27h608.2L589.6 650.7z" p-id="27549"></path></svg>