<?xml version="1.0" standalone="no"?><!DOCTYPE svg PUBLIC "-//W3C//DTD SVG 1.1//EN" "http://www.w3.org/Graphics/SVG/1.1/DTD/svg11.dtd">
<svg t="1573203512974" class="icon" viewBox="0 0 1024 1024" version="1.1" xmlns="http://www.w3.org/2000/svg" p-id="1156"
     width="200" height="200"><defs><style type="text/css"></style></defs><path d="M640.8 272c0-17.7-14.3-32-31.9-32H225.8c-17.6 0-31.9 14.3-31.9 32s14.3 32 31.9 32h383.1c17.6 0 31.9-14.3 31.9-32zM640.8 464c0-17.7-14.3-32-31.9-32H225.8c-17.6 0-31.9 14.3-31.9 32s14.3 32 31.9 32h383.1c17.6 0 31.9-14.3 31.9-32zM225.8 624c-17.6 0-31.9 14.3-31.9 32s14.3 32 31.9 32h191.6c17.6 0 31.9-14.3 31.9-32s-14.3-32-31.9-32H225.8z" p-id="1157"></path><path d="M535.4 848H160c-17.6 0-31.9-14.3-31.9-32V176c0-17.7 14.3-32 31.9-32h513.3c17.6 0 31.9 14.3 31.9 32v352c0 17.7 14.3 32 31.9 32 17.6 0 31.9-14.3 31.9-32V144c0-35.3-28.6-64-63.8-64h-577c-35.2 0-63.8 28.7-63.8 64v704c0 35.3 28.6 64 63.8 64h407.3c17.6 0 31.9-14.3 31.9-32-0.1-17.7-14.4-32-32-32z" p-id="1158"></path><path d="M919.3 768c0-9.8-1.1-19.4-3.2-28.6l43.6-31.6-32-55.4-49.3 22c-14-13-30.9-22.9-49.6-28.7l-5.6-53.6h-64l-5.6 53.6c-18.7 5.7-35.6 15.7-49.6 28.7l-49.3-22-32 55.4 43.6 31.6c-2.1 9.2-3.2 18.8-3.2 28.6s1.1 19.4 3.2 28.6l-43.6 31.6 32 55.4 49.3-22c14 13 30.9 22.9 49.6 28.7l5.6 53.6h64l5.6-53.6c18.7-5.7 35.6-15.7 49.6-28.7l49.3 22 32-55.4-43.6-31.6c2.1-9.2 3.2-18.8 3.2-28.6z m-128 64c-35.3 0-64-28.7-64-64s28.7-64 64-64 64 28.7 64 64-28.7 64-64 64z" p-id="1159"></path></svg>
