<?xml version="1.0" standalone="no"?><!DOCTYPE svg PUBLIC "-//W3C//DTD SVG 1.1//EN" "http://www.w3.org/Graphics/SVG/1.1/DTD/svg11.dtd"><svg t="1555327959296" class="icon" style="" viewBox="0 0 1024 1024" version="1.1" xmlns="http://www.w3.org/2000/svg" p-id="788" xmlns:xlink="http://www.w3.org/1999/xlink" width="200" height="200"><defs><style type="text/css"></style></defs><path d="M510.80529 147.205667c-187.374528 0-339.265914 151.875013-339.265914 339.266937 0 187.359178 151.891386 339.265914 339.265914 339.265914S850.071204 673.831782 850.071204 486.472604C850.071204 299.080679 698.179818 147.205667 510.80529 147.205667zM510.80529 639.140679c-84.318384 0-152.669098-68.349691-152.669098-152.668075 0-84.319407 68.350714-152.670122 152.669098-152.670122 84.319407 0 152.669098 68.350714 152.669098 152.670122C663.474388 570.790988 595.124697 639.140679 510.80529 639.140679z" p-id="789"></path><path d="M395.788743 840.548828c-24.153096 27.929096-75.258031 86.968747-88.542592 101.647051-17.509792 19.348674 59.569724 19.415189 202.334241 19.415189 142.763494 0 219.84301-0.065492 202.316845-19.415189-13.384845-14.777565-65.203024-74.645071-89.107457-102.310154-35.764552 12.789281-74.280774 19.780509-114.452705 19.780509C468.894761 859.665211 431.007873 852.906274 395.788743 840.548828z" p-id="790"></path><path d="M578.657654 119.574353c-5.184069-32.401967-33.577746-57.18542-67.853387-57.18542-34.273595 0-62.667272 24.783453-67.853387 57.18542 21.982664-4.14132 44.661176-6.294356 67.853387-6.294356S556.676014 115.433032 578.657654 119.574353z" p-id="791"></path></svg>