<?xml version="1.0" standalone="no"?><!DOCTYPE svg PUBLIC "-//W3C//DTD SVG 1.1//EN"
    "http://www.w3.org/Graphics/SVG/1.1/DTD/svg11.dtd">
<svg class="icon" width="200px" height="200.00px" viewBox="0 0 1024 1024" version="1.1"
     xmlns="http://www.w3.org/2000/svg">
    <path fill="#4b9df3" d="M512.1 893.5H168.7V128.7h618.6v303.1h-50V178.7H218.7v664.8h293.4z"/>
    <path fill="#4b9df3"
          d="M644.4 811.4c-2 0-4 0-6-0.1-43.1-1.6-83-19.8-112.3-51.3-29.4-31.6-44.7-72.6-43.1-115.7 1.6-43.1 19.8-83 51.3-112.3 31.6-29.4 72.7-44.7 115.7-43.1 43.1 1.6 83 19.8 112.3 51.3 29.4 31.6 44.7 72.6 43.1 115.7-1.6 43.1-19.8 83-51.3 112.3-30.1 28-68.8 43.2-109.7 43.2z m-0.3-272.7c-28.2 0-55 10.5-75.7 29.8-21.8 20.3-34.4 47.8-35.4 77.5-1.1 29.7 9.5 58.1 29.7 79.9 20.3 21.8 47.8 34.4 77.5 35.4 29.7 1.1 58.1-9.5 79.9-29.7 21.8-20.3 34.4-47.8 35.4-77.5 1.1-29.7-9.5-58.1-29.7-79.9s-47.8-34.4-77.5-35.4c-1.4-0.1-2.8-0.1-4.2-0.1z"/>
    <path fill="#4b9df3"
          d="M709.193 756.609l36.61-34.055 126.82 136.336-36.61 34.055zM289.4 278h231.9v50H289.4zM289.4 393h231.9v50H289.4z"/>
    <path fill="#4b9df3" d="M289.4 508h135v50h-135z"/>
</svg>
