<?xml version="1.0" standalone="no"?><!DOCTYPE svg PUBLIC "-//W3C//DTD SVG 1.1//EN" "http://www.w3.org/Graphics/SVG/1.1/DTD/svg11.dtd"><svg t="1556091266023" class="icon" style="" viewBox="0 0 1024 1024" version="1.1" xmlns="http://www.w3.org/2000/svg" p-id="3070" xmlns:xlink="http://www.w3.org/1999/xlink" width="200" height="200"><defs><style type="text/css"></style></defs><path d="M681.6777203358026 700.2362209975308c-7.95364314074074 0-15.90728628148148-3.97682157037037-19.884107851851855-11.93046471111111-6.628035950617282-10.604857520987656-2.651214380246914-25.186536612345677 7.95364314074074-31.81457256296296 96.76932487901234-57.001109175308635 155.09604124444445-157.74725562469135 155.09604124444445-270.42386678518517 0-172.32893471604936-140.5143621530864-312.84329686913577-314.1689040592592-312.84329686913577-172.32893471604936 0-312.84329686913577 140.5143621530864-312.84329686913577 312.84329686913577 0 110.02539678024692 59.652323555555554 213.42275760987656 155.09604124444445 270.42386678518517 10.604857520987656 6.628035950617282 14.581679091358023 21.20971504197531 7.95364314074074 31.81457256296296-6.628035950617282 10.604857520987656-21.20971504197531 14.581679091358023-31.81457256296296 7.95364314074074-110.02539678024692-64.95475231604938-178.95697066666668-182.93379223703704-178.95697066666668-310.1920824888889 0-198.8410785185185 161.72407719506168-359.2395485234568 359.2395485234568-359.2395485234568s360.5651557135802 161.72407719506168 360.5651557135802 359.2395485234568c0 128.5838974419753-66.28035950617284 245.2373301728395-178.95697066666668 310.1920824888889C689.6313634765432 698.9106138074073 685.6545419061729 700.2362209975308 681.6777203358026 700.2362209975308z" fill="#f9a834" p-id="3071"></path><path d="M651.1887549629629 753.2605086024691l-278.3775099259259 0c-13.256071901234565 0-23.86092942222222-10.604857520987656-23.86092942222222-23.86092942222222s10.604857520987656-23.86092942222222 23.86092942222222-23.86092942222222l278.3775099259259 0c13.256071901234565 0 23.86092942222222 10.604857520987656 23.86092942222222 23.86092942222222S664.4448268641976 753.2605086024691 651.1887549629629 753.2605086024691z" fill="#f9a834" p-id="3072"></path><path d="M628.6534327308642 832.7969400098764l-234.63247265185186 0c-13.256071901234565 0-23.86092942222222-10.604857520987656-23.86092942222222-23.86092942222222s10.604857520987656-23.86092942222222 23.86092942222222-23.86092942222222l234.63247265185186 0c13.256071901234565 0 23.86092942222222 10.604857520987656 23.86092942222222 23.86092942222222S641.9095046320988 832.7969400098764 628.6534327308642 832.7969400098764z" fill="#f9a834" p-id="3073"></path><path d="M527.9072862814816 998.4978387753085l-33.14017975308642 0c-64.95475231604938 0-117.97903992098763-50.37307322469135-117.97903992098763-114.00221835061727 0-13.256071901234565 10.604857520987656-23.86092942222222 23.86092942222222-23.86092942222222s23.86092942222222 10.604857520987656 23.86092942222222 23.86092942222222c0 35.791394133333334 33.14017975308642 67.60596669629629 71.58278826666667 67.60596669629629l33.14017975308642 0c38.44260851358025 0 70.2571810765432-30.48896537283951 70.2571810765432-67.60596669629629 0-13.256071901234565 10.604857520987656-23.86092942222222 23.86092942222222-23.86092942222222s23.86092942222222 10.604857520987656 23.86092942222222 23.86092942222222C644.5607190123455 946.7991583604937 592.862038597531 998.4978387753085 527.9072862814816 998.4978387753085z" fill="#f9a834" p-id="3074"></path></svg>