<?xml version="1.0" standalone="no"?><!DOCTYPE svg PUBLIC "-//W3C//DTD SVG 1.1//EN" "http://www.w3.org/Graphics/SVG/1.1/DTD/svg11.dtd"><svg t="1555915875695" class="icon" style="" viewBox="0 0 1024 1024" version="1.1" xmlns="http://www.w3.org/2000/svg" p-id="1934" xmlns:xlink="http://www.w3.org/1999/xlink" width="200" height="200"><defs><style type="text/css"></style></defs><path d="M511.437568 1023.7696A510.5152 510.5152 0 0 1 149.760768 873.9072 509.2352 509.2352 0 0 1 0.000768 512.3328 509.056 509.056 0 0 1 140.237568 160.5376 28.6208 28.6208 0 1 1 181.760768 199.9616a452.8128 452.8128 0 0 0-124.416 312.3712c0 250.4448 203.648 454.0928 454.0928 454.0928 250.4192 0 454.0928-203.648 454.0928-454.0928 0-250.4192-203.6736-454.0928-454.0928-454.0928a450.56 450.56 0 0 0-197.376 44.9536 28.7232 28.7232 0 0 1-38.272-13.312 28.7232 28.7232 0 0 1 13.312-38.272 507.9808 507.9808 0 0 1 222.336-50.688A510.5152 510.5152 0 0 1 873.114368 150.784a509.2352 509.2352 0 0 1 109.5936 162.6112 507.4688 507.4688 0 0 1 40.2688 199.0656 510.5152 510.5152 0 0 1-149.8624 361.6768 509.2352 509.2352 0 0 1-162.6112 109.6192 511.3856 511.3856 0 0 1-199.0656 40.0128z" p-id="1935"></path><path d="M511.437568 511.7696c-7.3472 0-14.6944-2.7392-20.3008-8.3712l-163.072-163.072a28.672 28.672 0 0 1 0-40.576 28.672 28.672 0 0 1 40.6016 0l142.7712 142.8736 142.7456-142.7712a28.672 28.672 0 0 1 40.6016 0 28.672 28.672 0 0 1 0 40.6016l-163.072 162.944c-5.6064 5.632-12.9536 8.3712-20.2752 8.3712z" p-id="1936"></path><path d="M650.522368 511.7696H372.327168a28.672 28.672 0 0 1 0-57.344h278.1952a28.672 28.672 0 0 1 0 57.344z m0 133.12H372.327168a28.672 28.672 0 0 1 0-57.344h278.1952a28.672 28.672 0 0 1 0 57.344z" p-id="1937"></path><path d="M511.437568 798.208a28.672 28.672 0 0 1-28.672-28.672V483.0976a28.672 28.672 0 0 1 57.344 0v286.464a28.672 28.672 0 0 1-28.672 28.672z" p-id="1938"></path></svg>