<?xml version="1.0" standalone="no"?><!DOCTYPE svg PUBLIC "-//W3C//DTD SVG 1.1//EN" "http://www.w3.org/Graphics/SVG/1.1/DTD/svg11.dtd"><svg t="1556091861789" class="icon" style="" viewBox="0 0 1024 1024" version="1.1" xmlns="http://www.w3.org/2000/svg" p-id="5509" xmlns:xlink="http://www.w3.org/1999/xlink" width="200" height="200"><defs><style type="text/css"></style></defs><path d="M617.1648 177.88928H266.53696c-20.4288 0-36.97664 16.42496-36.97664 36.66944v605.12256c0 20.24448 16.54784 36.6592 36.9664 36.6592h480.7168c20.4288 0 36.97664-16.41472 36.97664-36.6592V343.552L617.17504 177.88928zM640.1536 122.88L839.68 320.768v498.91328C839.68 870.2976 798.28992 911.36 747.23328 911.36H266.52672C215.47008 911.36 174.08 870.30784 174.08 819.68128V214.55872C174.08 163.9424 215.47008 122.88 266.52672 122.88h373.61664zM326.5536 746.33216a23.04 23.04 0 0 0-23.04 23.04v8.92928a23.04 23.04 0 0 0 23.04 23.04H687.2064a23.04 23.04 0 0 0 23.04-23.04v-8.92928a23.04 23.04 0 0 0-23.04-23.04H326.5536z m0-110.01856a23.04 23.04 0 0 0-23.04 23.04v8.92928a23.04 23.04 0 0 0 23.04 23.04H687.2064a23.04 23.04 0 0 0 23.04-23.04v-8.92928a23.04 23.04 0 0 0-23.04-23.04H326.5536z m0-110.0288a23.04 23.04 0 0 0-23.04 23.04v8.92928a23.04 23.04 0 0 0 23.04 23.04H687.2064a23.04 23.04 0 0 0 23.04-23.04v-8.92928a23.04 23.04 0 0 0-23.04-23.04H326.5536z m305.21344-348.39552h-13.94688v155.86304a9.216 9.216 0 0 0 9.24672 9.1648h157.15328v-13.824L631.7568 177.88928zM654.72512 122.88L839.68 306.30912v91.61728H627.05664c-35.7376 0-64.7168-28.73344-64.7168-64.17408V122.88h92.38528z" p-id="5510" fill="#cdcdcd"></path></svg>