<?xml version="1.0" standalone="no"?><!DOCTYPE svg PUBLIC "-//W3C//DTD SVG 1.1//EN" "http://www.w3.org/Graphics/SVG/1.1/DTD/svg11.dtd"><svg t="1553065091465" class="icon" style="" viewBox="0 0 1024 1024" version="1.1" xmlns="http://www.w3.org/2000/svg" p-id="10096" xmlns:xlink="http://www.w3.org/1999/xlink" width="200" height="200"><defs><style type="text/css"></style></defs><path d="M731.428571 0 292.571429 0c-40.427886 0-73.142857 32.749714-73.142857 73.142857l0 877.714286c0 40.393143 32.714971 73.142857 73.142857 73.142857l438.857143 0c40.356571 0 73.142857-32.749714 73.142857-73.142857L804.571429 73.142857C804.571429 32.749714 771.785143 0 731.428571 0zM457.142857 54.857143l109.714286 0c10.106514 0 18.285714 8.1792 18.285714 18.285714s-8.1792 18.285714-18.285714 18.285714l-109.714286 0c-10.106514 0-18.285714-8.1792-18.285714-18.285714S447.036343 54.857143 457.142857 54.857143zM512 987.428571c-30.357943 0-54.857143-24.4992-54.857143-54.857143s24.4992-54.857143 54.857143-54.857143 54.857143 24.4992 54.857143 54.857143S542.357943 987.428571 512 987.428571zM749.714286 841.142857 274.285714 841.142857 274.285714 146.285714l475.428571 0L749.714286 841.142857z" p-id="10097"></path><path d="M987.428571 256c-20.214857 0-36.571429 16.356571-36.571429 36.571429l0 365.714286c0 20.214857 16.356571 36.571429 36.571429 36.571429s36.571429-16.356571 36.571429-36.571429L1024 292.571429C1024 272.356571 1007.643429 256 987.428571 256z" p-id="10098"></path><path d="M877.714286 329.142857c-20.214857 0-36.571429 16.356571-36.571429 36.571429l0 219.428571c0 20.214857 16.356571 36.571429 36.571429 36.571429s36.571429-16.356571 36.571429-36.571429L914.285714 365.714286C914.285714 345.499429 897.929143 329.142857 877.714286 329.142857z" p-id="10099"></path><path d="M36.571429 256c-20.214857 0-36.571429 16.356571-36.571429 36.571429l0 365.714286c0 20.214857 16.356571 36.571429 36.571429 36.571429s36.571429-16.356571 36.571429-36.571429L73.142857 292.571429C73.142857 272.356571 56.786286 256 36.571429 256z" p-id="10100"></path><path d="M146.285714 329.142857c-20.214857 0-36.571429 16.356571-36.571429 36.571429l0 219.428571c0 20.214857 16.356571 36.571429 36.571429 36.571429s36.571429-16.356571 36.571429-36.571429L182.857143 365.714286C182.857143 345.499429 166.500571 329.142857 146.285714 329.142857z" p-id="10101"></path></svg>