<?xml version="1.0" standalone="no"?><!DOCTYPE svg PUBLIC "-//W3C//DTD SVG 1.1//EN" "http://www.w3.org/Graphics/SVG/1.1/DTD/svg11.dtd"><svg t="1555913209020" class="icon" style="" viewBox="0 0 1024 1024" version="1.1" xmlns="http://www.w3.org/2000/svg" p-id="3255" xmlns:xlink="http://www.w3.org/1999/xlink" width="200" height="200"><defs><style type="text/css"></style></defs><path d="M84.868411 602.001827c-7.9296 0-15.625886-4.090155-19.903306-11.43954-6.363941-10.981099-2.641153-25.044396 8.319479-31.408337L923.404396 65.22963c10.983145-6.41306 25.024953-2.641153 31.408337 8.318456 6.367011 10.981099 2.645247 25.043373-8.318456 31.408337L96.375489 598.880743C92.769358 600.991824 88.79279 602.001827 84.868411 602.001827L84.868411 602.001827zM84.868411 602.001827" p-id="3256"></path><path d="M823.737442 958.201411c-0.992607 0-2.00261-0.068562-3.01159-0.178055-12.568247-1.659803-21.439288-13.195533-19.805068-25.781176L912.191006 82.119299c1.63422-12.593829 13.216-21.437242 25.780153-19.805068 12.568247 1.654686 21.438265 13.187347 19.807115 25.781176l-111.274316 850.122881C844.960813 949.773462 835.086931 958.201411 823.737442 958.201411L823.737442 958.201411zM823.737442 958.201411" p-id="3257"></path><path d="M339.006506 644.99399c-1.26276 0-2.554172-0.096191-3.859911-0.320295L81.00236 601.681532c-12.497639-2.111081-20.932752-13.966083-18.815531-26.491351 2.115174-12.498662 13.898545-21.021779 26.491351-18.815531l254.139118 42.983977c12.497639 2.117221 20.932752 13.973246 18.822694 26.492374C359.727433 637.065414 350.007047 644.99399 339.006506 644.99399L339.006506 644.99399zM339.006506 644.99399" p-id="3258"></path><path d="M823.6873 958.201411c-5.004991 0-10.039657-1.626034-14.265912-4.958942L516.770142 721.184253c-9.949606-7.881504-11.602246-22.332634-3.741207-32.283264 7.922437-9.951653 22.378683-11.582803 32.283264-3.749394l292.64306 232.06538c9.952676 7.881504 11.603269 22.332634 3.750417 32.276101C837.175499 955.216427 830.46261 958.201411 823.6873 958.201411L823.6873 958.201411zM823.6873 958.201411" p-id="3259"></path><path d="M442.446389 942.02908l-0.026606 0c-12.682857 0-22.953781-13.256932-22.953781-25.938766l0.36839-276.403191c0-12.688997 10.292414-19.34765 22.981411-19.34765l0.01842 0c12.68388 0 22.955828 5.258771 22.955828 17.940604l-0.36839 280.405341C465.398124 931.388742 455.128223 942.02908 442.446389 942.02908L442.446389 942.02908zM442.446389 942.02908" p-id="3260"></path><path d="M442.788174 656.180773c-5.470595 0-10.962679-1.925862-15.32708-5.879917-9.444093-8.482185-10.221806-23.001877-1.747807-32.43983L917.892869 69.75776c8.496511-9.445116 23.022343-10.203386 32.441876-1.747807 9.444093 8.484232 10.221806 23.001877 1.747807 32.43983l-492.173442 548.103266C455.352327 653.606135 449.08253 656.180773 442.788174 656.180773L442.788174 656.180773zM442.788174 656.180773" p-id="3261"></path></svg>