<?xml version="1.0" standalone="no"?><!DOCTYPE svg PUBLIC "-//W3C//DTD SVG 1.1//EN" "http://www.w3.org/Graphics/SVG/1.1/DTD/svg11.dtd"><svg t="1555913287902" class="icon" style="" viewBox="0 0 1024 1024" version="1.1" xmlns="http://www.w3.org/2000/svg" p-id="5177" xmlns:xlink="http://www.w3.org/1999/xlink" width="200" height="200"><defs><style type="text/css"></style></defs><path d="M896 928H128c-17.706667 0-32-14.293333-32-32s14.293333-32 32-32h54.4V330.666667c0-129.6 105.066667-234.666667 234.666667-234.666667h189.866666c129.6 0 234.666667 105.066667 234.666667 234.666667v533.333333h54.4c17.706667 0 32 14.293333 32 32s-14.293333 32-32 32zM777.6 328.533333c0-93.12-75.413333-168.533333-168.533333-168.533333H414.933333c-93.12 0-168.533333 75.413333-168.533333 168.533333v535.466667h531.2V328.533333z m-276.906667-53.333333c0.853333-1.706667 1.813333-3.2 2.986667-4.693333 3.84-13.333333 16.106667-23.04 30.72-23.04 17.706667 0 32 14.293333 32 32v146.133333h67.52c5.12-0.106667 10.24 0.96 14.933333 3.413333 15.68 8.106667 21.333333 28.16 12.8 44.693334L520 745.6c-0.853333 1.706667-1.92 3.306667-2.986667 4.693333-3.84 13.333333-16.106667 23.04-30.72 23.04-17.706667 0-32-14.293333-32-32V595.306667h-65.706666c-5.653333 0.426667-11.413333-0.533333-16.746667-3.306667-15.68-8.213333-21.333333-28.16-12.8-44.8l141.653333-272z m17.6 335.146667l62.933334-120.746667H534.4c-17.706667 0-32-14.293333-32-32v-47.04l-62.933333 120.853333h46.826666c17.706667 0 32 14.293333 32 32v46.933334z" p-id="5178"></path></svg>